<svg width="24" height="24" viewBox="0 0 24 24" fill="none" xmlns="http://www.w3.org/2000/svg">
<path d="M4.17856 0.00708123C4.36601 0.0056413 4.55346 0.00420137 4.74659 0.00271781C5.36659 -0.000900639 5.98643 0.00149657 6.60643 0.00427259C7.03697 0.00371917 7.46751 0.00292177 7.89805 0.00189026C8.80054 0.000678279 9.70297 0.00244149 10.6054 0.00627876C11.763 0.0109604 12.9205 0.00826506 14.078 0.00334317C14.9671 0.000375682 15.8562 0.00131805 16.7453 0.00344818C17.1721 0.00399685 17.599 0.00332185 18.0258 0.00141066C18.6221 -0.000673242 19.2182 0.00250077 19.8145 0.00708123C20.0799 0.00458618 20.0799 0.00458618 20.3506 0.00204072C21.065 0.0122211 21.5244 0.0220877 22.1437 0.434465C22.4991 1.11533 22.5016 1.71432 22.4858 2.47838C22.4857 2.63286 22.4855 2.78734 22.4853 2.94649C22.4846 3.28187 22.4822 3.61725 22.4783 3.95261C22.4725 4.48706 22.4718 5.02126 22.4725 5.55575C22.4737 7.07532 22.4664 8.59477 22.4542 10.1143C22.4471 11.045 22.4465 11.9756 22.4495 12.9064C22.4494 13.2577 22.4468 13.609 22.4416 13.9602C22.4072 16.309 22.7281 18.1085 23.6021 20.2562C24.0147 21.3079 24.0974 22.4073 23.892 23.5327C23.42 24.0543 23.2572 23.9951 22.6031 23.9957C22.3122 23.9974 22.3122 23.9974 22.0155 23.9992C21.8019 23.9984 21.5883 23.9975 21.3682 23.9967C21.144 23.9974 20.9197 23.9981 20.6887 23.9989C20.0727 24.0004 19.4568 24 18.8408 23.9987C18.197 23.9977 17.5533 23.9986 16.9095 23.9993C15.8282 24 14.747 23.999 13.6657 23.9971C12.4146 23.9949 11.1635 23.9956 9.91238 23.9978C8.83932 23.9997 7.76627 24 6.69321 23.9989C6.05183 23.9983 5.41046 23.9982 4.76907 23.9995C4.05432 24.0009 3.33959 23.999 2.62483 23.9967C2.30445 23.9979 2.30445 23.9979 1.97759 23.9992C1.78369 23.9981 1.5898 23.9969 1.39002 23.9957C1.22089 23.9955 1.05176 23.9954 0.877497 23.9952C0.472855 23.9435 0.472855 23.9435 0.101123 23.5327C-0.142732 22.197 0.070803 21.043 0.56593 19.8263C1.44242 17.6657 1.57846 15.7816 1.54376 13.4424C1.54362 13.0812 1.54416 12.72 1.54534 12.3588C1.5471 11.4208 1.54186 10.4831 1.53435 9.54525C1.52279 8.0347 1.51925 6.52421 1.5213 5.01362C1.52054 4.48868 1.51492 3.96399 1.50885 3.4391C1.50813 3.11886 1.50758 2.79862 1.50723 2.47838C1.50425 2.33347 1.50128 2.18856 1.49821 2.03926C1.50153 1.40777 1.56243 0.984221 1.84939 0.434465C2.60116 -0.0661535 3.31662 -0.00102305 4.17856 0.00708123ZM2.51738 1.346C2.49974 1.82724 2.49404 2.30237 2.49628 2.78367C2.49626 2.93642 2.49623 3.08917 2.49621 3.24654C2.49635 3.74318 2.49777 4.2398 2.49923 4.73643C2.4995 5.04216 2.49969 5.3479 2.4998 5.65363C2.50077 6.78994 2.50337 7.92624 2.50576 9.06254C2.5096 11.6005 2.51343 14.1385 2.51738 16.7534C8.77363 16.7534 15.0299 16.7534 21.4757 16.7534C21.4795 14.2154 21.4834 11.6774 21.4873 9.06254C21.489 8.26004 21.4907 7.45753 21.4924 6.63071C21.4931 5.91374 21.4931 5.91374 21.4934 5.19677C21.4937 4.87648 21.4944 4.55618 21.4953 4.23589C21.4967 3.75181 21.4969 3.26775 21.4968 2.78367C21.4978 2.56827 21.4978 2.56827 21.4988 2.34851C21.5482 1.68733 21.5482 1.68733 21.2898 1.14057C20.7137 1.11989 20.1417 1.1126 19.5655 1.11399C19.3845 1.11363 19.2035 1.11327 19.017 1.1129C18.4154 1.11199 17.8139 1.11259 17.2124 1.11328C16.7964 1.11315 16.3804 1.11295 15.9644 1.11269C15.0912 1.11239 14.2181 1.11283 13.345 1.11379C12.223 1.11496 11.101 1.11428 9.97905 1.11305C9.11965 1.11231 8.26025 1.11255 7.40085 1.11308C6.98702 1.11322 6.5732 1.11305 6.15938 1.11257C5.58211 1.11205 5.00485 1.11284 4.42759 1.11399C4.16833 1.11336 4.16833 1.11336 3.90384 1.11273C3.1509 1.0309 3.1509 1.0309 2.51738 1.346ZM2.33151 17.7806C1.77949 19.4076 1.77949 19.4076 1.21632 21.0675C3.2404 21.0675 5.26448 21.0675 7.34989 21.0675C7.59524 20.4573 7.84058 19.8472 8.09336 19.2186C10.6695 19.2186 13.2456 19.2186 15.8997 19.2186C16.1451 19.8287 16.3904 20.4389 16.6432 21.0675C18.6673 21.0675 20.6913 21.0675 22.7768 21.0675C22.4087 19.9828 22.0407 18.8981 21.6616 17.7806C15.2826 17.7806 8.90373 17.7806 2.33151 17.7806ZM8.65095 20.0403C8.58962 20.3793 8.52828 20.7182 8.46509 21.0675C10.7958 21.0675 13.1266 21.0675 15.528 21.0675C15.436 20.559 15.436 20.559 15.3421 20.0403C13.134 20.0403 10.926 20.0403 8.65095 20.0403ZM1.03045 22.3001C1.03045 22.5034 1.03045 22.7068 1.03045 22.9164C8.26807 22.9164 15.5057 22.9164 22.9626 22.9164C22.9626 22.713 22.9626 22.5096 22.9626 22.3001C15.725 22.3001 8.48739 22.3001 1.03045 22.3001Z" fill="white"/>
<path d="M5.54428 1.70362C5.6991 1.7029 5.85392 1.70218 6.01343 1.70144C6.52478 1.69963 7.03607 1.70083 7.54742 1.70222C7.90295 1.70194 8.25848 1.70154 8.61402 1.70103C9.35898 1.70042 10.1039 1.7013 10.8489 1.70322C11.8039 1.70556 12.7589 1.70421 13.7139 1.70175C14.448 1.70027 15.1821 1.70074 15.9162 1.70181C16.2684 1.70208 16.6205 1.70174 16.9727 1.70079C17.4648 1.69974 17.9568 1.70133 18.4489 1.70362C18.6673 1.70238 18.6673 1.70238 18.8902 1.7011C19.5932 1.70716 20.1362 1.73031 20.7323 2.16765C20.7452 3.92836 20.7551 5.68904 20.7612 7.4498C20.7641 8.26733 20.768 9.08483 20.7743 9.90235C20.7804 10.6909 20.7837 11.4794 20.7852 12.268C20.7862 12.5692 20.7882 12.8705 20.7912 13.1717C20.7953 13.5928 20.7958 14.0138 20.7956 14.4349C20.7974 14.7948 20.7974 14.7948 20.7993 15.162C20.7772 15.3482 20.7551 15.5344 20.7323 15.7262C20.0207 16.2505 19.4434 16.1948 18.6188 16.1902C18.4601 16.1909 18.3013 16.1916 18.1378 16.1924C17.6125 16.1942 17.0872 16.193 16.5619 16.1916C16.1973 16.1919 15.8328 16.1923 15.4682 16.1928C14.7038 16.1934 13.9395 16.1925 13.1751 16.1906C12.1945 16.1883 11.2138 16.1896 10.2331 16.1921C9.48023 16.1935 8.72733 16.1931 7.97442 16.192C7.61278 16.1917 7.25114 16.1921 6.8895 16.193C6.38444 16.1941 5.87944 16.1925 5.37439 16.1902C5.22433 16.191 5.07426 16.1919 4.91965 16.1927C4.20627 16.1867 3.86873 16.1741 3.26089 15.7262C3.19384 15.162 3.19384 15.162 3.19759 14.4349C3.19751 14.3026 3.19742 14.1703 3.19734 14.034C3.19773 13.596 3.20207 13.1581 3.20644 12.7201C3.20748 12.4167 3.20827 12.1133 3.20883 11.8099C3.21096 11.0108 3.21644 10.2118 3.2226 9.41274C3.2283 8.59758 3.23085 7.7824 3.23366 6.96722C3.23965 5.36733 3.24916 3.7675 3.26089 2.16765C3.97597 1.64303 4.71834 1.69891 5.54428 1.70362ZM4.19022 2.98938C4.19022 6.92135 4.19022 10.8533 4.19022 14.9044C9.34242 14.9044 14.4946 14.9044 19.803 14.9044C19.803 10.9725 19.803 7.0405 19.803 2.98938C14.6508 2.98938 9.49855 2.98938 4.19022 2.98938Z" fill="white"/>
<path d="M9.76594 11.0015C11.4833 11.0015 13.2007 11.0015 14.9702 11.0015C15.0929 11.2726 15.2155 11.5438 15.3419 11.8232C15.1561 12.0286 15.1561 12.0286 14.6231 12.0519C14.3905 12.0509 14.1578 12.0498 13.9182 12.0487C13.7329 12.0483 13.7329 12.0483 13.5439 12.0478C13.1481 12.0467 12.7523 12.0441 12.3564 12.0415C12.0887 12.0404 11.8209 12.0395 11.5531 12.0387C10.8954 12.0364 10.2377 12.0328 9.58008 12.0286C9.64141 11.6897 9.70275 11.3507 9.76594 11.0015Z" fill="white"/>
<path d="M12.7397 12.8501C14.4571 12.8501 16.1745 12.8501 17.944 12.8501C17.944 13.1891 17.944 13.528 17.944 13.8773C16.2879 13.8773 14.6319 13.8773 12.9256 13.8773C12.8643 13.5383 12.8029 13.1993 12.7397 12.8501Z" fill="white"/>
<path d="M6.04883 9.35791C7.33688 9.35791 8.62493 9.35791 9.95201 9.35791C10.0133 9.62908 10.0747 9.90025 10.1379 10.1796C9.95201 10.3851 9.95201 10.3851 9.57261 10.4084C9.41006 10.4073 9.24751 10.4062 9.08004 10.4051C8.90454 10.4045 8.72904 10.4038 8.54822 10.4031C8.36361 10.4014 8.179 10.3997 7.9888 10.3979C7.80348 10.397 7.61815 10.3961 7.42721 10.3951C6.96774 10.3927 6.50829 10.3893 6.04883 10.3851C6.04883 10.0461 6.04883 9.70714 6.04883 9.35791Z" fill="white"/>
<path d="M8.45543 7.48584C8.61019 7.48692 8.76495 7.48799 8.92441 7.4891C9.09152 7.48976 9.25864 7.49042 9.43082 7.49111C9.69443 7.49369 9.69443 7.49369 9.96337 7.49632C10.1398 7.49725 10.3163 7.49818 10.4981 7.49913C10.9355 7.50156 11.373 7.50495 11.8104 7.50916C11.8717 7.84812 11.9331 8.18709 11.9963 8.53632C10.7082 8.53632 9.42017 8.53632 8.09309 8.53632C8.03176 8.26515 7.97042 7.99398 7.90723 7.71459C8.09309 7.50916 8.09309 7.50916 8.45543 7.48584Z" fill="white"/>
<path d="M8.81044 12.8267C9.0309 12.8283 9.0309 12.8283 9.25582 12.8299C9.49391 12.8309 9.49391 12.8309 9.73682 12.8319C9.9037 12.8336 10.0706 12.8354 10.2425 12.8371C10.4101 12.8381 10.5777 12.839 10.7504 12.84C11.1658 12.8424 11.5812 12.8458 11.9966 12.85C11.9966 13.1889 11.9966 13.5279 11.9966 13.8771C10.8312 13.8771 9.66586 13.8771 8.46516 13.8771C8.40383 13.606 8.34249 13.3348 8.2793 13.0554C8.46516 12.85 8.46516 12.85 8.81044 12.8267Z" fill="white"/>
<path d="M6.42035 4.0166C6.53652 4.37611 6.53652 4.37611 6.60622 4.83833C6.54105 4.97391 6.47588 5.1095 6.40873 5.24919C6.35123 5.38478 6.29373 5.52036 6.23449 5.66006C6.40021 6.09492 6.40021 6.09492 6.60622 6.48179C6.54488 6.61737 6.48355 6.75296 6.42035 6.89265C5.84183 6.8216 5.52286 6.71314 5.04959 6.32771C4.74756 5.86549 4.74756 5.86549 4.74756 5.35191C5.10798 4.35599 5.44274 4.0166 6.42035 4.0166Z" fill="white"/>
<path d="M9.76594 4.0166C10.2779 4.07514 10.5253 4.2353 10.9392 4.58154C11.2529 5.04376 11.2529 5.04376 11.2529 5.55734C11.029 6.17583 10.8075 6.4953 10.3235 6.89265C9.90534 6.84129 9.90534 6.84129 9.58008 6.68722C9.61458 6.47113 9.64908 6.25504 9.68463 6.0324C9.75731 5.33231 9.72305 4.89361 9.58008 4.22203C9.64141 4.15424 9.70275 4.08645 9.76594 4.0166Z" fill="white"/>
<path d="M8.09339 4.0166C8.33873 4.08439 8.58408 4.15219 8.83686 4.22203C8.75321 5.37767 8.52378 5.9918 7.90753 6.89265C7.66218 6.82486 7.41684 6.75707 7.16406 6.68722C7.25983 5.60225 7.58315 4.92621 8.09339 4.0166Z" fill="white"/>
<path d="M6.23469 11.0015C7.03206 11.0015 7.82942 11.0015 8.65095 11.0015C8.71229 11.3404 8.77362 11.6794 8.83682 12.0286C7.91678 12.0286 6.99674 12.0286 6.04883 12.0286C6.11016 11.6897 6.1715 11.3507 6.23469 11.0015Z" fill="white"/>
<path d="M5.73023 7.48877C5.98575 7.49234 5.98575 7.49234 6.24644 7.49599C6.41727 7.49785 6.5881 7.4997 6.76411 7.50161C6.89612 7.50399 7.02814 7.50638 7.16415 7.50883C7.2687 7.90686 7.2687 7.90686 7.35002 8.33056C7.16415 8.53599 7.16415 8.53599 6.73942 8.55605C6.4839 8.55248 6.4839 8.55248 6.22321 8.54883C6.05238 8.54698 5.88155 8.54512 5.70554 8.54321C5.57353 8.54083 5.44151 8.53845 5.30549 8.53599C5.20095 8.13797 5.20095 8.13797 5.11963 7.71426C5.30549 7.50883 5.30549 7.50883 5.73023 7.48877Z" fill="white"/>
<path d="M16.0858 11.0015C16.6378 11.0015 17.1898 11.0015 17.7586 11.0015C17.8199 11.3404 17.8812 11.6794 17.9444 12.0286C17.2697 12.0286 16.595 12.0286 15.8999 12.0286C15.9612 11.6897 16.0226 11.3507 16.0858 11.0015Z" fill="white"/>
<path d="M6.04883 12.8501C6.53951 12.8501 7.0302 12.8501 7.53576 12.8501C7.6403 13.2481 7.6403 13.2481 7.72162 13.6718C7.53576 13.8773 7.53576 13.8773 7.19234 13.8973C6.81117 13.8906 6.43 13.8839 6.04883 13.8773C6.04883 13.5383 6.04883 13.1993 6.04883 12.8501Z" fill="white"/>
</svg>
