<svg width="30" height="30" viewBox="0 0 30 30" fill="none" xmlns="http://www.w3.org/2000/svg">
<g clip-path="url(#clip0_24_82)">
<path d="M11.2207 8.87695H17.9004L21.9727 8.90625L22.2656 8.96484L22.6172 9.14062L22.9395 9.46289L23.1445 9.87305L23.2031 10.1367V18.3398L23.1445 18.7207L22.9688 19.0723L22.7051 19.3652L22.3828 19.5703L22.0898 19.6582L21.8262 19.6875H16.875V20.127L17.9297 20.1562L18.1348 20.2734L18.2812 20.5078V20.7129L18.1934 20.8887L18.0469 21.0352L17.9004 21.0938H12.0996L11.8652 20.9766L11.7188 20.7422V20.5078L11.8359 20.3027L12.0117 20.1562H13.125V19.6875H8.08594L7.67578 19.5996L7.35352 19.4238L7.08984 19.1602L6.91406 18.8672L6.82617 18.6035L6.79688 18.457V10.1074L6.88477 9.75586L7.08984 9.43359L7.20703 9.28711L7.5 9.08203L7.79297 8.93555L7.93945 8.90625L11.2207 8.87695ZM8.05664 9.84375L7.88086 9.96094L7.76367 10.1074L7.73438 10.1953V18.4277L7.91016 18.6621L8.08594 18.75H21.8555L22.0605 18.6621L22.2363 18.457L22.2656 18.3105V10.2246L22.1484 9.99023L22.002 9.87305L21.9434 9.84375H8.05664ZM14.0625 19.6875L14.0332 20.0684L14.0625 20.1562H15.9082L15.9375 20.127V19.6875H14.0625Z" fill="white"/>
<path d="M14.6191 10.7812H15.3223L15.6445 10.8691L15.9375 11.0449L16.1719 11.3086V11.3672L16.3184 11.3379H16.6699L17.0508 11.4551L17.3438 11.6602L17.666 11.9824L17.8418 12.2461L17.959 12.6855V12.9199L17.9297 13.0664L18.252 13.3594L18.3984 13.5938L18.4863 13.8281L18.5156 14.0332V14.5605L18.4277 14.9414L18.252 15.2344L18.0469 15.4395L17.959 15.498V15.9082L17.8711 16.2598L17.7246 16.5234L17.4609 16.8164L17.1973 17.0508L16.875 17.1973L16.6113 17.2559H16.2012L15.9375 17.5488L15.6445 17.7246L15.2637 17.8125H14.6777L14.3555 17.7246L14.0332 17.5195L13.7988 17.2559L13.7109 17.2266L13.5938 17.2559L13.2129 17.2266L12.8906 17.1094L12.627 16.9043L12.3047 16.582L12.1582 16.3477L12.041 15.9668V15.6738L12.0703 15.5566L11.9238 15.4102L11.6895 15.1465L11.543 14.8535L11.4844 14.6777V13.9746L11.5723 13.6523L11.748 13.3594L12.041 13.0957V12.627L12.1582 12.2461L12.334 11.9824L12.7441 11.5723L13.0664 11.3965L13.3008 11.3379H13.7988L14.0625 11.0449L14.3262 10.8691L14.6191 10.7812ZM14.7363 11.7188L14.5898 11.8652L14.5605 11.9238V12.1582L14.5898 12.3047L14.3262 12.3926L13.9746 12.5684L13.8574 12.5977L13.7988 12.4805L13.5938 12.2754L13.4766 12.2461L13.3008 12.334L13.0371 12.5977L12.9785 12.6855L13.0078 12.8906L13.2715 13.1836L13.2422 13.3301L12.9785 13.8574H12.5977L12.4512 14.0039L12.4219 14.0625V14.502L12.5098 14.6484L12.6562 14.7363H12.9785L13.0957 15L13.2715 15.3223L13.2129 15.4688L12.9785 15.7031V15.8789L13.125 16.084L13.3594 16.2891L13.5645 16.3184L13.8574 16.0547L13.9746 16.0254L14.4141 16.2305L14.5312 16.2891L14.5605 16.6699L14.6777 16.8457L14.7656 16.875H15.2344L15.4102 16.7285L15.4395 16.4648V16.2891L15.8789 16.1133L15.9961 16.0254L16.1426 16.0547L16.3477 16.2598L16.5527 16.3184L16.7578 16.2012L16.9922 15.9375L17.0215 15.7324L16.8164 15.498L16.7285 15.4102L16.7578 15.2637L16.9922 14.7363H17.373L17.5488 14.5898L17.5781 14.502V14.1504L17.4902 13.9453L17.3438 13.8574H17.0215L16.7285 13.2715L16.7578 13.125L16.9922 12.9199L17.0215 12.8613V12.6855L16.7578 12.3926L16.6113 12.2754H16.4062L16.1426 12.5391V12.5977L15.8789 12.4805L15.4688 12.3047H15.4102L15.4395 12.0117L15.3516 11.8066L15.2344 11.7188H14.7363Z" fill="white"/>
<path d="M24.1406 3.75H24.5801L24.9316 3.83789L25.2539 4.04297L25.5176 4.30664L25.7227 4.7168L25.7812 4.98047V5.33203L25.6934 5.68359L25.5176 5.97656L25.2832 6.24023L24.9609 6.44531L24.6973 6.5332L24.4922 6.5625H24.2285L23.9355 6.50391L23.5254 6.29883L23.2617 6.03516L23.0273 5.6543L20.1855 5.625L20.1562 7.93945L20.127 7.96875H19.2188L19.1895 7.67578L19.2188 5.41992L19.3359 5.12695L19.541 4.89258L19.7754 4.74609L19.9512 4.6875L22.1191 4.6582H23.0566L23.1152 4.48242L23.3203 4.21875L23.4668 4.07227L23.7598 3.86719L24.1406 3.75ZM24.2285 4.6875L24.0527 4.80469L23.9355 4.95117L23.9062 5.00977V5.27344L24.082 5.53711L24.2578 5.625L24.5215 5.5957L24.6973 5.47852L24.8145 5.30273L24.8438 5.06836L24.7266 4.83398L24.5801 4.7168L24.4922 4.6875H24.2285Z" fill="white"/>
<path d="M19.2188 20.625H20.127L20.1562 20.6543V22.9688L23.0273 22.9395L23.2324 22.5879L23.5254 22.2949L23.8184 22.1191L24.1406 22.0312H24.6094L24.9902 22.1484L25.2832 22.3535L25.5176 22.5879L25.7227 22.998L25.7812 23.291V23.5547L25.6934 23.9648L25.5469 24.2285L25.2539 24.5508L24.9023 24.7559L24.4922 24.8438H24.2285L23.8477 24.7559L23.4961 24.5508L23.2617 24.3164L22.998 23.9062L22.7637 23.9355L20.0684 23.9062L19.8047 23.8477L19.5117 23.6719L19.3359 23.4375L19.2188 23.1445L19.1895 22.3535V20.7129L19.2188 20.625ZM24.2285 22.9688L24.0527 23.0859L23.9355 23.2324L23.9062 23.291V23.5547L24.082 23.7891L24.2871 23.9062H24.4922L24.7266 23.7598L24.8438 23.5254L24.8145 23.2324L24.668 23.0566L24.4922 22.9688H24.2285Z" fill="white"/>
<path d="M5.39062 3.75H5.80078L6.15234 3.83789L6.41602 3.98438L6.70898 4.24805L6.91406 4.57031L6.97266 4.6582L9.99023 4.6875L10.2832 4.77539L10.5176 4.95117L10.6934 5.21484L10.752 5.36133L10.7812 5.53711V7.93945L10.752 7.96875H9.84375L9.81445 6.94336L9.84375 5.625H6.94336L6.88477 5.80078L6.65039 6.12305L6.41602 6.32812L6.06445 6.50391L5.74219 6.5625H5.47852L5.18555 6.50391L4.77539 6.29883L4.48242 6.00586L4.27734 5.5957L4.21875 5.39062V4.92188L4.33594 4.54102L4.51172 4.27734L4.6582 4.10156L5.06836 3.83789L5.39062 3.75ZM5.50781 4.6875L5.33203 4.77539L5.18555 4.95117L5.15625 5.03906V5.27344L5.30273 5.50781L5.50781 5.625H5.71289L5.94727 5.50781L6.06445 5.33203L6.09375 5.06836L6.00586 4.86328L5.83008 4.7168L5.74219 4.6875H5.50781Z" fill="white"/>
<path d="M9.84375 20.625H10.752L10.7812 20.6543V23.0566L10.7227 23.291L10.6055 23.5254L10.459 23.6719L10.2539 23.8184L10.0781 23.877L9.87305 23.9062H6.94336L6.88477 24.082L6.62109 24.4336L6.35742 24.6387L6.12305 24.7559L5.71289 24.8438H5.44922L5.06836 24.7559L4.74609 24.5508L4.48242 24.2871L4.30664 23.9941L4.21875 23.7012V23.2324L4.30664 22.8809L4.48242 22.5879L4.77539 22.2949L5.06836 22.1191L5.41992 22.0312H5.85938L6.15234 22.1191L6.47461 22.2949L6.70898 22.5293L6.97266 22.9395H9.81445L9.84375 20.625ZM5.47852 22.9688L5.27344 23.0859L5.15625 23.291V23.5547L5.33203 23.8184L5.50781 23.9062H5.74219L5.97656 23.7598L6.09375 23.5254L6.06445 23.2617L5.94727 23.0859L5.74219 22.9688H5.47852Z" fill="white"/>
<path d="M14.6484 0H15.293L15.7617 0.205078L16.0547 0.46875L16.2305 0.703125L16.3477 0.966797L16.4062 1.23047V1.58203L16.3184 1.93359L16.1426 2.22656L15.9082 2.49023L15.6445 2.66602L15.498 2.72461L15.4688 7.93945L15.4395 7.96875H14.5605L14.502 7.85156V2.7832L14.4727 2.72461L14.2969 2.63672L13.9746 2.37305L13.7402 2.05078L13.623 1.75781L13.5938 1.64062V1.17188L13.7109 0.791016L13.9453 0.439453H14.0039L14.0332 0.351562L14.4434 0.0878906L14.6484 0ZM14.8535 0.9375L14.6777 1.05469L14.5605 1.20117L14.5312 1.28906V1.55273L14.707 1.78711L14.8828 1.875H15.0879L15.2637 1.78711L15.4102 1.61133L15.4688 1.34766L15.3809 1.11328L15.2051 0.966797L15.1172 0.9375H14.8535Z" fill="white"/>
<path d="M14.5312 22.0312H15.4395L15.4688 22.0605V27.2754L15.6445 27.334L15.9082 27.5098L16.1426 27.7441L16.3477 28.1543L16.4062 28.418V28.7402L16.3184 29.1211L16.1426 29.4141L15.9082 29.6777L15.5859 29.8828L15.2344 30H14.7363L14.3555 29.8535L14.0918 29.6777L13.8574 29.4434L13.6523 29.0332L13.5938 28.8281V28.3594L13.7109 27.9785L13.916 27.6855L14.1211 27.4805L14.4434 27.2754L14.502 27.2461V22.207L14.5312 22.0312ZM14.8535 28.125L14.6484 28.2422L14.5312 28.4473V28.6816L14.6484 28.916L14.7949 29.0332L14.8828 29.0625H15.1172L15.3516 28.916L15.4395 28.7695L15.4688 28.5645L15.4102 28.3594L15.293 28.2129L15.0879 28.125H14.8535Z" fill="white"/>
<path d="M14.7656 12.8906H15.1758L15.5273 12.9785L15.8496 13.1543L16.1426 13.4473L16.3477 13.8574L16.4062 14.1504V14.4727L16.3184 14.8242L16.1426 15.1172L15.8789 15.4102L15.5859 15.5859L15.3223 15.6738L15.1172 15.7031H14.8242L14.4434 15.6152L14.1211 15.4102L13.8867 15.1758L13.6816 14.8535L13.5938 14.5312V14.0332L13.7109 13.6523L13.9453 13.3594L14.1504 13.1543L14.4434 12.9785L14.7656 12.8906ZM14.8535 13.8281L14.6484 13.9453L14.5312 14.1797V14.3848L14.6484 14.6191L14.8242 14.7363L15.0879 14.7656L15.3223 14.6484L15.4395 14.4727L15.4688 14.209L15.3516 13.9746L15.2051 13.8574L15.1172 13.8281H14.8535Z" fill="white"/>
<path d="M2.22656 12.6562H2.95898L3.45703 12.7441L3.98438 12.9199L4.45312 13.1836L4.74609 13.418L5.00977 13.6816L5.15625 13.9746V14.1797L5.00977 14.4141L4.80469 14.5312H4.57031L4.33594 14.3848L4.10156 14.1211L3.69141 13.8574L3.33984 13.7109L2.90039 13.623H2.25586L1.81641 13.7109L1.37695 13.8867L1.05469 14.1211L0.791016 14.4141L0.644531 14.502L0.380859 14.5312L0.146484 14.4141L0 14.2383V13.8867L0.234375 13.5938L0.498047 13.3301L0.791016 13.125L1.25977 12.8906L1.69922 12.7441L1.96289 12.6855L2.22656 12.6562Z" fill="white"/>
<path d="M27.041 12.6562H27.7734L28.3008 12.7441L28.7402 12.8906L29.1504 13.0957L29.5605 13.3887L29.8242 13.6523L30 13.916V14.2383L29.8535 14.4141L29.707 14.502L29.4434 14.5312L29.2383 14.4434L28.916 14.0918L28.5938 13.8867L28.1836 13.7109L27.7441 13.623H27.0703L26.6602 13.7109L26.3086 13.8574L26.0156 14.0332L25.7812 14.2383L25.6348 14.4141L25.4297 14.5312H25.1953L24.9609 14.3848L24.8438 14.1797V13.9453L24.9902 13.6816L25.3418 13.3301L25.7812 13.0371L26.25 12.832L26.8066 12.6855L27.041 12.6562Z" fill="white"/>
<path d="M27.0996 14.5312H27.7441L28.1543 14.6191L28.623 14.8535L28.8867 15.0586L29.1504 15.3223L29.2969 15.6152V15.8203L29.1797 15.9961L29.0039 16.1426L28.7402 16.1719L28.5352 16.084L28.1543 15.7031L27.8613 15.5566L27.5977 15.498H27.1875L26.8359 15.6152L26.5137 15.8496L26.3086 16.084L26.1035 16.1719L25.8398 16.1426L25.6641 16.0254L25.5469 15.8203V15.5859L25.6641 15.3516L26.0449 14.9707L26.4258 14.7363L26.7773 14.5898L27.0996 14.5312Z" fill="white"/>
<path d="M2.19727 14.5312H2.87109L3.28125 14.6191L3.69141 14.7949L4.01367 15.0293L4.30664 15.3223L4.45312 15.5859V15.8203L4.33594 15.9961L4.18945 16.1426L3.95508 16.2012L3.75 16.1133L3.36914 15.7324L3.07617 15.5566L2.8418 15.498H2.34375L2.08008 15.5566L1.78711 15.7324L1.40625 16.1133L1.25977 16.1719L0.996094 16.1426L0.820312 16.0254L0.703125 15.8203V15.5859L0.849609 15.3223L1.02539 15.1172L1.37695 14.8535L1.8457 14.6191L2.19727 14.5312Z" fill="white"/>
<path d="M19.7754 14.7656H20.9473L21.1523 14.8535L21.3281 15.1172V15.3809L21.1816 15.5859L21.0645 15.6738L20.9473 15.7031H19.834L19.6289 15.6152L19.5117 15.4688L19.4531 15.3516V15.0879L19.6289 14.8535L19.7754 14.7656Z" fill="white"/>
<path d="M19.7754 12.8906H20.9766L21.2109 13.0371L21.3281 13.2422V13.4766L21.2109 13.6523L21.0352 13.7988L20.918 13.8281H19.8047L19.6289 13.7402L19.5117 13.5938L19.4531 13.4766V13.2422L19.5703 13.0371L19.7168 12.9199L19.7754 12.8906Z" fill="white"/>
<path d="M8.99414 14.7656H10.166L10.4004 14.8828L10.5469 15.1172V15.3223L10.459 15.498L10.3125 15.6445L10.0488 15.7031H9.02344L8.78906 15.5566L8.64258 15.2637L8.67188 15.0586L8.87695 14.8242L8.99414 14.7656Z" fill="white"/>
<path d="M9.02344 12.8906H10.166L10.4004 13.0078L10.5176 13.1836L10.5469 13.4473L10.459 13.623L10.2539 13.7988L10.1074 13.8281H9.08203L8.84766 13.7402L8.73047 13.5938L8.67188 13.4766V13.2129L8.84766 12.9785L9.02344 12.8906Z" fill="white"/>
<path d="M27.2754 16.4062H27.5391L27.7148 16.4941L27.8613 16.6699L27.8906 16.7578V16.9922L27.7441 17.2266L27.5098 17.3438H27.3047L27.0996 17.2266L26.9531 17.0215L26.9238 16.8164L27.041 16.582L27.2754 16.4062Z" fill="white"/>
<path d="M2.43164 16.4062H2.69531L2.87109 16.4941L2.98828 16.6406L3.04688 16.7871V16.9922L2.92969 17.168L2.75391 17.3145L2.69531 17.3438H2.46094L2.22656 17.1973L2.10938 16.9922V16.7285L2.28516 16.4941L2.43164 16.4062Z" fill="white"/>
</g>
<defs>
<clipPath id="clip0_24_82">
<rect width="30" height="30" fill="white"/>
</clipPath>
</defs>
</svg>
