<svg width="30" height="30" viewBox="0 0 30 30" fill="none" xmlns="http://www.w3.org/2000/svg">
<g clip-path="url(#clip0_23_79)">
<path d="M13.623 0.0585938H15.5566L15.8789 0.0732422L16.1133 0.117188L16.3037 0.19043L16.4795 0.292969L16.626 0.410156L16.7285 0.512695L16.8604 0.703125L16.9629 0.922852L17.0068 1.08398L17.0361 1.34766V3.51562L17.2852 3.57422L17.6807 3.67676L18.1055 3.80859L18.4717 3.94043L18.8965 4.10156L19.4971 4.37988L19.8047 4.52637L20.1562 4.73145L20.5225 4.93652L20.5664 4.96582L20.625 4.95117L22.1338 3.44238L22.3242 3.2959L22.5293 3.17871L22.7783 3.10547L22.8516 3.09082H23.2178L23.4521 3.14941L23.6133 3.22266L23.7891 3.3252L24.0088 3.51562L25.6641 5.1709L25.7959 5.33203L25.8984 5.49316L25.957 5.61035L26.0303 5.85938L26.0449 5.96191V6.22559L26.001 6.44531L25.9277 6.63574L25.8105 6.84082L25.708 6.97266H25.6787L25.6494 7.03125L24.1553 8.52539L24.2725 8.75977L24.3604 8.90625L24.5801 9.28711L24.7852 9.69727L24.917 9.99023L25.0781 10.3564L25.3418 11.0889L25.459 11.4844L25.6201 12.085L27.8467 12.0996L28.0664 12.1289L28.2568 12.1875L28.4619 12.29L28.6523 12.4365L28.7695 12.5537L28.916 12.7734L28.9893 12.9346L29.0479 13.1543L29.0625 13.2715V13.6084L29.0186 13.7549L28.9307 13.8867L28.8574 13.9453L28.667 14.0039H28.5498L28.4033 13.96L28.2568 13.8281L28.1836 13.6816L28.1689 13.6084L28.1543 13.3447L28.1104 13.1982L28.0225 13.0811L27.9053 13.0225L27.832 13.0078L25.3418 12.9932L25.166 12.9492L25.0342 12.876L24.9463 12.8027L24.8584 12.6855L24.7705 12.4658L24.5508 11.6016L24.4043 11.1621L24.1992 10.6055L24.0381 10.2539L23.8477 9.8584L23.7305 9.62402L23.5254 9.27246L23.291 8.87695L23.1885 8.65723L23.1738 8.59863V8.39355L23.2324 8.21777L23.3496 8.05664L23.4814 7.9248L23.5547 7.83691L23.6133 7.77832H23.6426V7.74902H23.6719V7.71973H23.7012V7.69043H23.7305V7.66113L23.7891 7.60254H23.8184V7.57324H23.8477V7.54395L23.9502 7.45605L24.0234 7.36816L24.126 7.28027L24.1992 7.19238L24.3018 7.10449L24.375 7.0166L24.4775 6.92871L24.5508 6.84082L24.6533 6.75293L24.7266 6.66504L24.8438 6.5625L24.9463 6.45996L25.0488 6.34277L25.1074 6.25488L25.1367 6.1377V6.03516L25.0635 5.85938L24.9023 5.68359L23.335 4.11621L23.1738 4.01367L23.0273 3.98438L22.8955 4.01367L22.7637 4.10156L21.0938 5.77148L20.9473 5.87402L20.8154 5.93262L20.7129 5.96191H20.5371L20.3467 5.88867L20.083 5.74219L19.8633 5.61035L19.4678 5.37598L19.1455 5.21484L18.7354 5.02441L18.4277 4.89258L17.6953 4.62891L17.3291 4.52637L16.5967 4.33594L16.4355 4.2627L16.3037 4.16016L16.2158 4.02832L16.1572 3.89648L16.1279 3.67676L16.1133 1.25977L16.0547 1.12793L15.9961 1.05469L15.8936 0.996094L15.835 0.981445H13.2275L13.1104 1.02539L13.0078 1.11328L12.9492 1.23047L12.9346 1.28906L12.9199 3.75L12.8906 3.92578L12.7881 4.11621L12.6709 4.2334L12.4951 4.32129L12.0703 4.43848L11.499 4.58496L10.9863 4.76074L10.5176 4.93652L10.1074 5.12695L9.84375 5.24414L9.56543 5.39062L9.28711 5.55176L8.87695 5.80078L8.64258 5.91797L8.51074 5.96191H8.33496L8.18848 5.91797L8.04199 5.83008L7.89551 5.69824L6.29883 4.10156L6.15234 4.01367L6.09375 3.99902H5.91797L5.80078 4.05762L5.61035 4.2334L4.01367 5.83008L3.94043 5.96191L3.92578 6.02051V6.18164L3.96973 6.28418L4.05762 6.40137L5.68359 8.02734L5.80078 8.18848L5.85938 8.30566L5.88867 8.42285L5.87402 8.62793L5.80078 8.81836L5.58105 9.19922L5.40527 9.49219L5.28809 9.69727L5.1709 9.93164L4.89258 10.5176L4.70215 11.0303L4.52637 11.5283L4.35059 12.2021L4.2627 12.5244L4.2041 12.6709L4.11621 12.7881L3.99902 12.8906L3.88184 12.9492L3.69141 12.9932L1.21582 13.0078L1.08398 13.0518L0.966797 13.1543L0.908203 13.3154L0.893555 13.5059V15.7764L0.922852 15.9668L0.996094 16.084L1.12793 16.1719L1.27441 16.2012L3.70605 16.2158L3.89648 16.2598L4.04297 16.3477L4.16016 16.4648L4.24805 16.6406L4.35059 17.0068L4.49707 17.5781L4.67285 18.1055L4.83398 18.5449L4.93652 18.7793L5.28809 19.5264L5.53711 19.9365L5.75684 20.3174L5.85938 20.5225L5.88867 20.6689V20.7715L5.84473 20.9473L5.74219 21.1084L5.58105 21.2842L3.99902 22.8662L3.94043 22.9834L3.92578 23.0273V23.2031L3.99902 23.3496L4.1748 23.54L5.71289 25.0781L5.85938 25.1807L5.97656 25.21H6.0791L6.22559 25.1514L6.37207 25.0195L6.47461 24.917H6.50391L6.5332 24.8584L7.93945 23.4521L8.11523 23.3203L8.26172 23.2617L8.32031 23.2471H8.49609L8.65723 23.291L8.93555 23.4375L9.3457 23.6865L9.65332 23.8623L9.90234 23.9795L10.1367 24.0967L10.5176 24.2725L11.4551 24.6094L12.3193 24.8291L12.5391 24.9023L12.6855 24.9902L12.8027 25.1074L12.8906 25.2832L12.9199 25.4297L12.9346 27.9199L12.9785 28.0518L13.0664 28.1543L13.1836 28.2129L13.2568 28.2275L13.5059 28.2422L15.8057 28.2275L15.9375 28.1836L16.0547 28.0811L16.0986 27.9932L16.1133 27.9346L16.1279 25.5029L16.1719 25.2539L16.2744 25.0781L16.4209 24.9463L16.582 24.873L16.9189 24.7852L17.4316 24.6533L18.0322 24.4629L18.1348 24.4336L18.1201 24.1846V23.9941L18.1348 23.6426L18.1787 23.2324L18.252 22.8369L18.3398 22.4707L18.3984 22.2803L18.3105 22.3096L17.8271 22.5293L17.2852 22.7344L16.9043 22.8516L16.5234 22.9541L16.0254 23.0566L15.5273 23.1299L15.0293 23.1738H14.0479L13.4473 23.1152L12.9346 23.0273L12.4219 22.9102L11.9678 22.7783L11.4697 22.6025L10.9863 22.3975L10.4297 22.1191L10.0781 21.9141L9.8291 21.7529L9.59473 21.5918L9.31641 21.3867L9.08203 21.1963L8.87695 21.0205L8.58398 20.7568L8.24707 20.4199L8.14453 20.3027L7.99805 20.1416L7.70508 19.7754L7.51465 19.5117L7.38281 19.3213L7.17773 18.999L7.00195 18.6914L6.78223 18.2666L6.60645 17.8711L6.41602 17.3584L6.25488 16.8311L6.1377 16.3184L6.0498 15.791L5.99121 15.249L5.97656 14.9854V14.3262L6.02051 13.667L6.1084 13.0811L6.18164 12.7148L6.34277 12.0996L6.50391 11.6309L6.66504 11.2207L6.89941 10.7373L7.0166 10.5029L7.16309 10.2539L7.39746 9.87305L7.57324 9.62402L7.71973 9.43359L7.89551 9.19922L8.02734 9.03809L8.14453 8.9209L8.26172 8.77441H8.29102L8.32031 8.71582L8.4082 8.61328H8.4375L8.4668 8.55469L8.71582 8.32031L8.8623 8.18848L8.97949 8.08594L9.12598 7.9541L9.68262 7.54395L9.90234 7.39746L10.4883 7.0459L10.8252 6.88477L11.0596 6.76758L11.2939 6.66504L11.8506 6.45996L12.1875 6.35742L12.7148 6.22559L13.1104 6.15234L13.623 6.0791L14.0186 6.0498L14.3408 6.03516H14.9121L15.3516 6.06445L15.835 6.12305L16.2744 6.19629L16.7725 6.31348L17.3438 6.48926L17.6953 6.62109L17.9736 6.73828L18.3545 6.91406L18.8232 7.16309L19.1455 7.36816L19.4092 7.54395L19.6729 7.73438L19.9072 7.9248L20.0684 8.05664L20.3613 8.32031L20.4785 8.4375L20.5957 8.54004L20.6982 8.65723L20.8594 8.81836L20.9619 8.93555L21.0938 9.09668L21.2988 9.3457L21.4453 9.55078L21.6357 9.81445L21.9287 10.2832L22.1338 10.6641L22.3535 11.1035L22.5732 11.6455L22.749 12.1729L22.8662 12.5977L22.9688 13.0664L23.0566 13.623L23.1006 14.1211L23.1152 14.458V14.8535L23.0859 15.3955L23.0273 15.8789L22.9541 16.3184L22.8223 16.8604L22.7051 17.2559L22.5586 17.666L22.4121 18.0176L22.2363 18.3984H22.2803L22.6465 18.2959L22.998 18.2227L23.4082 18.1641L23.8037 18.1348H24.3896L24.4336 17.9736L24.6094 17.4023L24.7852 16.6992L24.873 16.4941L25.0049 16.3477L25.1807 16.2451L25.3271 16.2158L27.7734 16.2012L27.9199 16.1719L28.0078 16.1279L28.1104 16.0107L28.1543 15.8643L28.1689 15.5713L28.2129 15.4248L28.3008 15.293L28.4326 15.2051L28.5205 15.1758H28.7109L28.8574 15.2344L28.9453 15.3076L29.0332 15.4541L29.0625 15.5566V15.9375L29.0186 16.1719L28.9307 16.4062L28.8281 16.5674L28.667 16.7578L28.5059 16.8896L28.2715 17.0068L28.0518 17.0801L27.7734 17.1094L25.6201 17.124L25.4736 17.6953L25.2979 18.2666L25.415 18.2812L25.7959 18.3838L26.0889 18.4863L26.3232 18.5742L26.6162 18.7061L26.8506 18.8232L27.1143 18.9697L27.5537 19.2627L27.7588 19.4238L27.9199 19.5557L28.0664 19.6875L28.2422 19.8486L28.418 20.0244L28.5205 20.1416L28.6963 20.3467L28.916 20.6396L29.0625 20.8594L29.2383 21.1523L29.4141 21.4746L29.5752 21.8408L29.707 22.1924L29.8242 22.5879L29.9268 23.0566L29.9707 23.3643L30 23.3789V24.7266L29.9707 24.7559L29.8828 25.2832L29.7949 25.6641L29.6191 26.1914L29.458 26.5723L29.2969 26.8945L29.1504 27.1436L28.9307 27.4805L28.7549 27.7148L28.5938 27.9199L28.3887 28.1396L28.2861 28.2568L28.2275 28.3154H28.1982L28.1836 28.3594L28.0664 28.4619L27.9053 28.6084L27.7588 28.7256L27.5684 28.8721L27.1289 29.165L26.7041 29.3994L26.2793 29.5898L25.957 29.707L25.5615 29.8242L25.2979 29.8828L25.0928 29.8975L24.9316 29.8389L24.8438 29.7656L24.7559 29.6191L24.7266 29.5459V29.3701L24.7852 29.2236L24.8877 29.1064L24.9756 29.0479L25.21 28.9746L25.5469 28.8867L25.9131 28.7549L26.3086 28.5791L26.5576 28.4473L26.8213 28.2861L27.0703 28.1104L27.2754 27.9492L27.4219 27.8174L27.5391 27.7148L27.7881 27.4658L27.8906 27.3486L27.9785 27.2314H28.0078L28.0371 27.1729L28.1543 27.0117L28.2568 26.8652L28.4619 26.5283L28.5791 26.3086L28.7402 25.9424L28.8574 25.6201L28.96 25.2539L29.0332 24.9023L29.0771 24.5508L29.0918 24.3164V23.833L29.0625 23.4521L28.9893 23.0127L28.8721 22.5732L28.7256 22.1631L28.5645 21.8115L28.418 21.5332L28.2129 21.2109L27.9785 20.9033L27.8467 20.7422L27.7295 20.625L27.627 20.5078L27.5244 20.4053L27.4072 20.3027L27.2021 20.127L27.041 20.0098L26.8359 19.8633L26.5137 19.6729L26.2939 19.5557L25.9717 19.4092L25.5176 19.248L25.1074 19.1455L24.7559 19.0869L24.5361 19.0576L24.2871 19.043H23.8184L23.4521 19.0723L23.0127 19.1455L22.5586 19.2627L22.1191 19.4238L21.6943 19.6289L21.46 19.7607L21.1523 19.9658L20.9619 20.1123L20.8154 20.2295L20.4346 20.5811L20.2588 20.7861L20.1416 20.918L19.9365 21.1963L19.8047 21.4014L19.6436 21.665L19.4824 22.002L19.3652 22.2803L19.2334 22.6758L19.1309 23.0859L19.0576 23.5693L19.043 23.8037V24.3896L19.0869 24.8145L19.1455 25.1367L19.2188 25.4443L19.3652 25.8838L19.5117 26.2207L19.7021 26.6016L19.9219 26.9385L20.0684 27.1436L20.2734 27.3926L20.4785 27.6123L20.6543 27.7881L20.7715 27.8906L21.0059 28.0811L21.2549 28.2568L21.5332 28.4326L21.9287 28.6377L22.3242 28.7988L22.6758 28.916L23.2178 29.0479L23.3936 29.1357L23.4961 29.2383L23.5547 29.3848V29.5898L23.4668 29.7656L23.3496 29.8682L23.1885 29.9268H23.0273L22.5146 29.8096L22.0898 29.6777L21.709 29.5312L21.3574 29.3701L21.0205 29.1797L20.7861 29.0332L20.5371 28.8574L20.332 28.6963L20.1416 28.5352L19.9512 28.3594L19.6289 28.0371L19.4971 27.876L19.3213 27.6562L19.1309 27.3926L18.9404 27.085L18.7939 26.8213L18.6035 26.4258L18.457 26.0449L18.3545 25.7227L18.2666 25.3711V25.3418L17.666 25.5322L17.0508 25.6934L17.0361 27.832L17.0068 28.1104L16.9482 28.3154L16.8311 28.5498L16.6846 28.7402L16.5381 28.8721L16.377 28.9746L16.2158 29.0479L16.0254 29.1064L15.8203 29.1357H13.2129L12.9492 29.0918L12.7588 29.0186L12.583 28.916L12.4365 28.7988L12.334 28.6963L12.1875 28.4912L12.085 28.2568L12.041 28.0957L12.0264 27.9785L12.0117 25.8252L11.9971 25.6934L11.0449 25.4297L10.2393 25.1367L9.94629 25.0049L9.44824 24.7705L9.21387 24.6533L8.87695 24.4629L8.56934 24.2871L8.48145 24.2285L8.42285 24.2578L6.89941 25.7812L6.72363 25.9131L6.48926 26.0303L6.29883 26.0889L6.15234 26.1182H5.87402L5.66895 26.0742L5.47852 26.001L5.27344 25.8838L5.05371 25.6934L3.38379 24.0234L3.25195 23.8623L3.13477 23.6719L3.06152 23.4961L3.01758 23.3203L3.00293 23.1738V23.042L3.03223 22.8369L3.12012 22.5732L3.22266 22.3975L3.41309 22.1631L4.86328 20.7129H4.89258L4.87793 20.6104L4.67285 20.2588L4.45312 19.8779L4.2041 19.3652L4.01367 18.9404L3.7793 18.3105L3.64746 17.915L3.44238 17.1533V17.1094H1.27441L0.996094 17.0801L0.732422 16.9922L0.556641 16.8896L0.410156 16.7725L0.307617 16.6699L0.175781 16.4941L0.0585938 16.2451L0.0146484 16.0986L0 16.084V13.1104H0.0292969L0.0585938 12.9639L0.131836 12.7881L0.263672 12.583L0.380859 12.4512L0.541992 12.3193L0.74707 12.2021L0.908203 12.1436L1.04004 12.1143L1.18652 12.0996L3.42773 12.085L3.51562 11.7773L3.69141 11.1475L3.89648 10.5762L4.05762 10.166L4.27734 9.69727L4.42383 9.375L4.62891 9.02344L4.81934 8.68652L4.89258 8.55469L4.87793 8.49609L3.33984 6.95801L3.20801 6.78223L3.09082 6.5625L3.03223 6.37207L3.00293 6.16699V6.03516L3.04688 5.75684L3.12012 5.56641L3.2373 5.36133L3.31055 5.25879H3.33984L3.36914 5.2002L5.1709 3.39844L5.37598 3.25195L5.5957 3.14941L5.84473 3.09082H6.19629L6.44531 3.14941L6.67969 3.2666L6.84082 3.38379L6.9873 3.51562L8.4375 4.96582L8.51074 4.95117L8.81836 4.77539L9.19922 4.55566L9.41895 4.43848L9.8291 4.24805L10.1807 4.08691L10.7373 3.88184L11.2646 3.70605L11.9824 3.51562H12.0117V1.78711L12.0264 1.21582L12.0703 0.981445L12.1729 0.74707L12.2607 0.600586L12.3779 0.454102L12.4951 0.351562L12.6123 0.263672L12.8467 0.146484L13.0518 0.0878906L13.1543 0.0732422L13.623 0.0585938ZM14.0625 6.92871L13.2568 7.03125L12.6416 7.16309L12.29 7.26562L11.7334 7.45605L11.1768 7.70508L11.0889 7.74902L11.1768 7.91016L11.3818 8.27637L11.543 8.55469L11.5576 8.58398L11.6309 8.56934L12.1436 8.34961L12.6709 8.17383L13.0225 8.08594L13.4473 7.99805L14.0332 7.9248L14.0771 7.91016V6.92871H14.0625ZM14.9707 6.94336V7.86621L14.9854 7.91016L15.5273 7.9834L16.0693 8.08594L16.4502 8.18848L16.9336 8.34961L17.4463 8.56934H17.5049L17.6514 8.30566L17.7979 8.05664L17.9736 7.74902L17.8564 7.67578L17.2852 7.42676L16.8457 7.28027L16.4502 7.16309L15.7471 7.0166L15.249 6.95801L14.9707 6.94336ZM18.7354 8.18848L18.5596 8.51074L18.3984 8.78906L18.2812 8.99414L18.2959 9.05273L18.6768 9.3457L18.8379 9.47754L19.0576 9.68262L19.2041 9.81445L19.4678 10.0781L19.4824 10.1074H19.5117L19.541 10.166L19.6729 10.2979L19.834 10.5029L19.9805 10.6934L20.0977 10.8398H20.1562L20.4932 10.6494L20.9326 10.3857L20.9033 10.3125L20.7715 10.1221L20.5664 9.84375L20.4492 9.69727L20.2588 9.49219L20.1562 9.375L20.0244 9.22852L19.834 9.03809L19.7168 8.93555L19.5557 8.78906L19.4385 8.68652L19.248 8.54004L18.9844 8.34961L18.7646 8.18848H18.7354ZM10.2832 8.21777L10.1074 8.34961L9.94629 8.4668L9.66797 8.67188L9.56543 8.77441L9.44824 8.87695L9.09668 9.19922L8.90625 9.4043V9.43359H8.87695L8.77441 9.55078L8.61328 9.72656L8.20312 10.2832L8.14453 10.3711V10.415L8.30566 10.5029L8.54004 10.6348L8.8916 10.8398L8.9502 10.8691H8.99414L9.18457 10.6055L9.36035 10.3711L9.49219 10.2246L9.60938 10.0928V10.0635H9.63867L9.74121 9.94629L9.75586 9.90234H9.78516L9.99023 9.69727L10.0195 9.68262V9.65332L10.0781 9.62402L10.2832 9.43359L10.5176 9.25781L10.7959 9.05273L10.7373 8.9209L10.5469 8.58398L10.3271 8.21777H10.2832ZM14.4434 8.78906L13.8135 8.83301L13.4033 8.90625L13.0078 8.99414L12.3193 9.22852L12.0117 9.375L11.7334 9.52148L11.5283 9.63867L11.1768 9.87305L10.9717 10.0195L10.7959 10.1807L10.6787 10.2832L10.4736 10.459L10.3711 10.5615L10.2686 10.6787L10.0928 10.8838L9.96094 11.0303L9.81445 11.2354L9.63867 11.499L9.47754 11.7627L9.19922 12.3193L9.02344 12.8027L8.93555 13.0811L8.81836 13.6377L8.78906 13.7842L8.73047 14.5459L8.74512 14.8975L8.78906 15.4102L8.8916 15.9521L9.02344 16.4062L9.14062 16.7285L9.33105 17.1533L9.43359 17.4609L9.44824 17.5928L9.41895 17.8125L9.31641 18.0176L9.19922 18.1494L9.00879 18.2812L8.70117 18.457L8.34961 18.6621L8.12988 18.7939L8.20312 18.9258L8.34961 19.1162L8.49609 19.3213L8.64258 19.5117L8.83301 19.7168L8.93555 19.834L9.11133 20.0244L9.27246 20.1855L9.38965 20.2881L9.55078 20.4346L9.66797 20.5371L9.91699 20.7275L10.1807 20.918L10.4443 21.0938L10.8252 21.3135L11.0889 21.46L11.6016 21.6943L11.8213 21.7822L12.3486 21.958L12.6123 22.0312L13.1982 22.1631L13.9014 22.251L14.4434 22.2803H14.7803L15.5127 22.2217L16.1865 22.1045L16.4795 22.0312L17.0654 21.8555L17.6514 21.6211L17.9883 21.46L18.3105 21.2842L18.5449 21.1523L19.1309 20.7568L19.248 20.625L19.3652 20.4639L19.4531 20.3467L19.585 20.1855L19.6582 20.1123V20.083H19.6875L19.79 19.9658L19.8779 19.8633L19.9951 19.7607L20.2295 19.541L20.6689 19.2041L20.7422 19.1309L20.8887 18.9258L20.9473 18.8379V18.8086L20.5225 18.5596L20.1416 18.3398L19.9658 18.2227L19.79 18.0615L19.6729 17.8418L19.6436 17.71V17.4902L19.7607 17.1387L19.9219 16.7871L20.0391 16.4795L20.1562 16.0986L20.2148 15.8643L20.3174 15.2637L20.3467 14.8389V14.3701L20.3027 13.8281L20.2002 13.2861L20.127 12.9932L19.9365 12.4365L19.834 12.2021L19.5703 11.6748L19.4238 11.4258L19.248 11.1768L19.1309 11.0303L18.9551 10.8398L18.75 10.6201L18.6182 10.4736L18.5156 10.3711L18.3545 10.2393L18.1641 10.0635L18.0029 9.93164L17.7686 9.75586L17.4756 9.58008L16.9775 9.33105L16.582 9.16992L16.2305 9.03809L15.8496 8.93555L15.498 8.8623L14.9707 8.80371L14.6631 8.78906H14.4434ZM21.3721 11.1621L20.9766 11.3818L20.6543 11.5723L20.5664 11.6309L20.5811 11.7041L20.8008 12.2168L20.9912 12.8027L21.0938 13.2422L21.1523 13.5498L21.2256 14.1357L22.1924 14.1504V13.9746L22.1191 13.3447L21.9873 12.7295L21.8848 12.3633L21.6943 11.8066L21.4307 11.1914L21.3721 11.1621ZM7.67578 11.1768L7.5 11.5576L7.33887 11.9531L7.14844 12.5391L7.06055 12.9053L6.97266 13.3154L6.88477 14.0625V14.1357H7.85156L7.91016 13.7402L7.96875 13.3594L8.07129 12.8906L8.23242 12.3779L8.39355 11.9678L8.52539 11.6602L8.39355 11.5723L7.76367 11.2061L7.71973 11.1768H7.67578ZM6.88477 15.0439L6.91406 15.4102L6.9873 15.9375L7.11914 16.5527L7.25098 16.9775L7.39746 17.4023L7.66113 17.9883L7.67578 18.0176L7.73438 18.0029L8.08594 17.7979L8.4668 17.5781L8.51074 17.5488L8.48145 17.417L8.30566 17.0215L8.12988 16.4941L8.05664 16.2451L7.93945 15.6885L7.86621 15.1025L7.85156 15.0439H6.88477ZM21.2402 15.0439L21.2256 15.0586L21.1523 15.6299L21.0645 16.084L20.9912 16.3916L20.8154 16.9336L20.6543 17.3145L20.5811 17.4902L20.5664 17.5635L20.9473 17.7832L21.2988 17.9883L21.3721 18.0322L21.416 18.0176L21.6504 17.4902L21.7676 17.1826L21.9434 16.6406L22.0459 16.2012L22.1338 15.7617L22.207 15.0586L22.1924 15.0439H21.2402Z" fill="white"/>
<path d="M25.7227 21.8994H25.9131L26.1475 21.9434L26.3232 22.0166L26.4844 22.1191L26.6602 22.2803L26.7627 22.4268L26.8506 22.6025L26.9092 22.8076L26.9238 22.9248V23.0713L26.8799 23.3057L26.8066 23.4961L26.7041 23.6572L26.6016 23.7891H26.5723L26.543 23.8477L26.4111 23.9795L26.2939 24.082L25.9131 24.4629H25.8838V24.4922L25.7666 24.5947L25.4004 24.9609H25.3711V24.9902H25.3418V25.0195L25.2246 25.1221L24.8584 25.4883L24.7412 25.5908L24.3018 26.0303L24.0967 26.1914L23.8916 26.2939L23.7012 26.3525L23.5986 26.3672H23.3643L23.1592 26.3232L22.9834 26.25L22.8223 26.1475L22.6025 25.9424L22.3389 25.6787L22.2217 25.5762L21.7383 25.0928L21.6211 24.9902L21.4746 24.8291L21.3428 24.6387L21.2549 24.4336L21.2109 24.2285V24.0088L21.2549 23.7891L21.3574 23.5547L21.5039 23.3643L21.6064 23.2617L21.7529 23.1592L21.9287 23.0713L22.1045 23.0273L22.2217 23.0127H22.3975L22.6465 23.0566L22.8223 23.1299L23.0127 23.2617L23.2031 23.4375L23.4668 23.7012L23.5254 23.7158L23.5547 23.6572L23.7305 23.4814H23.7598V23.4521L23.877 23.3496L24.1699 23.0566H24.1992L24.2139 23.0127L24.3311 22.9102L24.8145 22.4268H24.8438L24.873 22.3682L24.9902 22.2656L25.1514 22.1191L25.3418 22.002L25.5322 21.9287L25.7227 21.8994ZM25.7666 22.793L25.6348 22.8809L25.2686 23.2471L25.21 23.291V23.3203L25.1514 23.3496L24.6387 23.8623L24.6094 23.877V23.9062L24.5508 23.9355V23.9648L24.4922 23.9941V24.0234L24.4336 24.0527L24.0674 24.4189L24.0088 24.4629V24.4922L23.9502 24.5215L23.8184 24.6533L23.6572 24.7559L23.5254 24.7852L23.3789 24.7705L23.2471 24.7119L23.0566 24.5508L22.4707 23.9648L22.3535 23.9062L22.2217 23.9209L22.1484 23.9795L22.1045 24.082L22.1191 24.1846L22.1777 24.2725L22.7637 24.8584L22.8809 24.9609L23.335 25.415L23.4521 25.4736H23.54L23.6719 25.3857L23.8037 25.2539L23.8623 25.21V25.1807L23.9209 25.1514L24.4043 24.668L24.5215 24.5654V24.5361L24.5801 24.5068L25.0635 24.0234L25.1807 23.9209L25.5176 23.584L25.5469 23.5693V23.54H25.5762V23.5107H25.6055V23.4814L25.6641 23.4521L25.9863 23.1299L26.0303 22.998L25.9863 22.8662L25.9131 22.8076L25.8691 22.793H25.7666Z" fill="white"/>
<path d="M14.3701 13.2129H14.6924L14.9121 13.2568L15.1611 13.3594L15.3809 13.5059L15.5566 13.667L15.7031 13.8574L15.8203 14.0918L15.8789 14.2969L15.9082 14.502V14.6631L15.8789 14.8975L16.0254 15L16.3477 15.1904L16.626 15.3662L18.0762 16.2598L18.3838 16.4502L18.5156 16.5527L18.6035 16.6553L18.6621 16.8018V16.9482L18.6035 17.1094L18.501 17.2266L18.4131 17.2852L18.252 17.3291H18.1348L17.959 17.2559L17.2705 16.8311L16.9189 16.6113L16.582 16.4062L16.2305 16.1865L15.4688 15.7178L15.3809 15.6738L15.1758 15.8057L15.0146 15.8789L14.8096 15.9375L14.6338 15.9668H14.3994L14.165 15.9229L13.9893 15.8643L13.7695 15.7471L13.6084 15.6152L13.5352 15.542L13.4033 15.3955L13.2715 15.1758L13.1836 14.9268L13.1543 14.7656V14.4141L13.2129 14.165L13.2861 13.9893L13.374 13.8281L13.5352 13.623H13.5645L13.5938 13.5645H13.623V13.5352L13.8867 13.3594L14.1357 13.2568L14.3701 13.2129ZM14.458 14.1064L14.3262 14.1504L14.2236 14.209L14.1211 14.3262L14.0625 14.4434L14.0479 14.5166V14.6631L14.0918 14.7949L14.1797 14.9268L14.2969 15.0146L14.4141 15.0586L14.4873 15.0732H14.5898L14.7363 15.0293L14.8682 14.9268L14.9561 14.8242L15 14.707L15.0146 14.5752L14.9707 14.3848L14.8682 14.2383L14.7363 14.1504L14.6191 14.1064H14.458Z" fill="white"/>
</g>
<defs>
<clipPath id="clip0_23_79">
<rect width="30" height="30" fill="white"/>
</clipPath>
</defs>
</svg>
