<svg width="30" height="30" viewBox="0 0 30 30" fill="none" xmlns="http://www.w3.org/2000/svg">
<path d="M2.47197 14.9854H17.4793L17.7572 15.0146L17.9766 15.0879L18.1375 15.1758L18.2984 15.293L18.4447 15.4395L18.5909 15.6592L18.6641 15.8203L18.708 15.9814L18.7226 16.084L18.7372 16.5527V17.5342L18.7226 20.1562L18.6787 20.3613L18.6056 20.5518L18.4885 20.7422L18.4008 20.8594H18.3715L18.3423 20.918L18.1668 21.0498L17.9327 21.167L17.6841 21.2402L17.4793 21.2695V22.4854L17.6548 22.5L17.9035 22.5586L18.1375 22.6758L18.2984 22.793L18.4447 22.9395L18.5909 23.1592L18.6641 23.3203L18.708 23.4961L18.7226 23.5986V27.6562L18.6787 27.8613L18.6056 28.0518L18.5178 28.1982L18.4008 28.3594H18.3715L18.3423 28.418L18.1668 28.5498L17.9327 28.667L17.7426 28.7256L17.5378 28.7549H2.38421L2.15018 28.7109L1.96002 28.6377L1.79913 28.5498L1.63823 28.418L1.53584 28.3154L1.41883 28.1543L1.31644 27.9492L1.27256 27.8174L1.2433 27.6562V23.5693L1.30181 23.335L1.41883 23.0859L1.55047 22.9102L1.69674 22.7637L1.90152 22.6318L2.06241 22.5586L2.29645 22.5L2.4866 22.4854V21.2549H2.35495L2.09167 21.1963L1.84301 21.0791L1.65286 20.9326L1.53584 20.8154L1.4042 20.625L1.31644 20.4492L1.27256 20.3174L1.2433 20.1562V16.0693L1.30181 15.835L1.41883 15.5859L1.5651 15.3955L1.69674 15.2637L1.90152 15.1318L2.06241 15.0586L2.31107 15L2.47197 14.9854ZM2.50122 16.2598V19.9951H17.4354L17.4647 19.9658V16.2598H2.50122ZM3.75915 21.2549L3.74452 21.3721V22.4854L16.1482 22.5L16.2067 22.4854L16.2214 22.3975V21.2695L16.2067 21.2549H3.75915ZM2.50122 23.7598V27.4951H17.45L17.4647 27.4805V23.7598H2.50122Z" fill="white"/>
<path d="M2.99854 0.0292969H3.23257L3.39347 0.0878906L3.52511 0.175781L3.68601 0.336914L3.8469 0.541992L4.0078 0.732422L4.1687 0.9375L4.31497 1.11328L4.47587 1.31836L4.63676 1.50879L4.79766 1.71387L4.97318 1.91895L5.13408 2.12402L5.26572 2.28516L5.64603 2.75391L5.83618 3.00293L6.0117 3.2373L6.15797 3.45703L6.24573 3.64746L6.26036 3.70605V3.83789L6.20185 4.01367L6.08484 4.1748L5.96782 4.27734L5.83618 4.33594L5.66065 4.37988L5.38274 4.39453H5.16333L5.00244 4.37988V13.0811L4.97318 13.3154L4.88542 13.4912L4.79766 13.5938L4.66602 13.6816L4.549 13.7256L4.3881 13.7549H1.79912L1.6236 13.7109L1.4627 13.6084L1.34568 13.4766L1.25792 13.3008L1.2433 13.2422L1.22867 4.39453L0.555826 4.37988L0.365675 4.32129L0.204778 4.2041L0.0877621 4.04297L0.014627 3.88184L0 3.80859V3.69141L0.029254 3.58887L0.131643 3.38379L0.277913 3.19336L0.409556 3.03223L0.702097 2.66602L0.862994 2.46094L1.02389 2.27051L1.17016 2.08008L1.36031 1.8457L1.47733 1.69922L1.63823 1.49414L1.82838 1.25977L1.93077 1.12793L2.10629 0.908203L2.26719 0.703125L2.39883 0.541992L2.55973 0.336914L2.69137 0.19043L2.80839 0.102539L2.94003 0.0439453L2.99854 0.0292969ZM3.11555 1.64062L2.99854 1.77246L2.85227 1.96289L2.66212 2.19727L2.50122 2.40234L2.36958 2.56348L2.19405 2.7832L2.06241 2.94434L1.94539 3.09082V3.12012L2.09166 3.16406L2.23793 3.2373L2.3842 3.38379L2.47196 3.57422L2.48659 3.63281L2.50122 12.4951H3.72989L3.74451 3.7207L3.77377 3.55957L3.83228 3.42773L3.92004 3.31055L4.02243 3.22266L4.13944 3.16406L4.28571 3.12012L4.25646 3.04688L4.06631 2.8125L3.90541 2.60742L3.71526 2.37305L3.59824 2.22656L3.43735 2.02148L3.2472 1.78711L3.13018 1.64062H3.11555Z" fill="white"/>
<path d="M26.0653 23.7451H26.3433L26.5041 23.8037L26.7089 23.9502L26.8845 24.0967L27.294 24.4189L27.5134 24.5947L27.7182 24.7559L27.9522 24.9463L28.3618 25.2686L28.5958 25.459L28.7421 25.5762L28.9469 25.7373L29.1809 25.9277L29.3418 26.0596L29.5904 26.2646L29.8245 26.4844L29.9561 26.6602V27.0996H29.9269L29.8976 27.1729L29.7221 27.3633L29.5466 27.5244L29.3857 27.6562L28.9176 28.0371L28.786 28.1396L28.5812 28.3008L28.3472 28.4912L28.2155 28.5938L27.9961 28.7695L27.7913 28.9307L27.6304 29.0625L27.4257 29.2236L27.1916 29.4141L26.7821 29.7363L26.548 29.9121L26.3871 30H26.0507L25.8313 29.8828L25.7582 29.8242L25.6558 29.6777L25.5973 29.5312L25.568 29.3408V28.7549H20.5217L20.3462 28.7109L20.1853 28.6084L20.0683 28.4766L19.9805 28.3008L19.9659 28.2422L19.9512 25.6787L19.9805 25.4443L20.0683 25.2686L20.1999 25.1221L20.3462 25.0342L20.4193 25.0049L20.5217 24.9902H25.568V24.4043L25.5826 24.2432L25.6412 24.082L25.7435 23.9355L25.8606 23.833L26.0215 23.7598L26.0653 23.7451ZM26.8406 25.6934L26.7674 25.9131L26.6504 26.0742L26.5334 26.1621L26.3725 26.2207L26.2847 26.2354L21.2238 26.25V27.4951L26.3286 27.5098L26.4603 27.5537L26.5919 27.627L26.665 27.6855L26.7674 27.832L26.8259 28.0225L26.8845 28.0371L27.0161 27.9199L27.1624 27.8027L27.3671 27.6416L27.6012 27.4512L27.7913 27.3047L27.9669 27.1582L28.1716 26.9971L28.3179 26.8799L28.2448 26.8066L27.9961 26.6016L27.7767 26.4258L27.5719 26.2646L27.411 26.1328L27.177 25.9424L26.9868 25.7959L26.8552 25.6934H26.8406Z" fill="white"/>
<path d="M22.394 17.4902H22.5402L22.7157 17.5342L22.8766 17.6367L22.9937 17.7686L23.0668 17.915L23.0961 18.0176V19.4678L23.0522 19.6143L22.9644 19.7607L22.9059 19.834L22.7596 19.9365L22.5841 19.9951L22.4525 20.0098L22.2769 19.9805L22.1453 19.9219L22.0137 19.8193L21.8966 19.6582L21.8381 19.4971L21.8235 19.3359V18.1494L21.8528 17.9443L21.9551 17.7393L22.0722 17.6221L22.2184 17.5342L22.394 17.4902Z" fill="white"/>
<path d="M22.394 13.7402H22.5402L22.7157 13.7842L22.8766 13.8867L22.9937 14.0186L23.0668 14.165L23.0961 14.2676V15.7178L23.0522 15.8643L22.9644 16.0107L22.9059 16.084L22.7596 16.1865L22.5841 16.2451L22.4525 16.2598L22.2769 16.2305L22.1453 16.1719L22.0137 16.0693L21.8966 15.9082L21.8381 15.7471L21.8235 15.5859V14.3994L21.8528 14.1943L21.9551 13.9893L22.0722 13.8721L22.2184 13.7842L22.394 13.7402Z" fill="white"/>
<path d="M22.394 9.99023H22.5402L22.7157 10.0342L22.8766 10.1367L22.9937 10.2686L23.0668 10.415L23.0961 10.5176V11.9678L23.0522 12.1143L22.9644 12.2607L22.9059 12.334L22.7596 12.4365L22.5841 12.4951L22.4525 12.5098L22.2769 12.4805L22.1453 12.4219L22.0137 12.3193L21.8966 12.1582L21.8381 11.9971L21.8235 11.8359V10.6494L21.8528 10.4443L21.9551 10.2393L22.0722 10.1221L22.2184 10.0342L22.394 9.99023Z" fill="white"/>
<path d="M22.394 21.2402H22.5402L22.7157 21.2842L22.8766 21.3867L22.9937 21.5186L23.0668 21.665L23.0961 21.7676V23.2031L23.0375 23.3936L22.9352 23.5547L22.7889 23.6719L22.6426 23.7305L22.5841 23.7451H22.3208L22.1453 23.6719L21.999 23.5547L21.8966 23.4082L21.8381 23.2471L21.8235 23.0713V21.8994L21.8528 21.6943L21.9551 21.4893L22.0722 21.3721L22.2184 21.2842L22.394 21.2402Z" fill="white"/>
<path d="M18.3423 6.85547H18.825L19.4685 6.87012L19.6294 6.92871L19.7611 7.0166L19.8781 7.14844L19.9512 7.29492L19.9805 7.42676V7.55859L19.9366 7.73438L19.8342 7.91016L19.7026 8.02734L19.5856 8.08594L19.3954 8.12988H18.0205L17.8449 8.08594L17.7133 7.99805L17.6255 7.9248L17.5232 7.76367L17.4793 7.66113L17.4646 7.58789V7.41211L17.5232 7.22168L17.6109 7.08984L17.7133 6.9873L17.8303 6.91406L17.962 6.87012L18.3423 6.85547Z" fill="white"/>
<path d="M14.5978 6.85547H15.0805L15.724 6.87012L15.8849 6.92871L15.9727 6.9873L16.0897 7.08984L16.1775 7.22168L16.2214 7.35352L16.236 7.42676V7.55859L16.1921 7.73438L16.1043 7.88086L16.0312 7.96875L15.8849 8.07129L15.6509 8.12988H14.276L14.1004 8.08594L13.9688 7.99805L13.881 7.9248L13.7786 7.76367L13.7348 7.66113L13.7201 7.58789V7.41211L13.7786 7.22168L13.8664 7.08984L13.9688 6.9873L14.0858 6.91406L14.2175 6.87012L14.5978 6.85547Z" fill="white"/>
<path d="M10.8532 6.85547H11.3359L11.9795 6.87012L12.1404 6.92871L12.2282 6.9873L12.3452 7.08984L12.433 7.22168L12.4768 7.35352L12.4915 7.42676V7.55859L12.4476 7.73438L12.3598 7.88086L12.2867 7.96875L12.1404 8.07129L11.9064 8.12988H10.5314L10.3559 8.08594L10.2243 7.99805L10.1365 7.9248L10.0341 7.76367L9.99024 7.66113L9.97562 7.58789V7.41211L10.0341 7.22168L10.1219 7.08984L10.2243 6.9873L10.3413 6.91406L10.4729 6.87012L10.8532 6.85547Z" fill="white"/>
<path d="M7.24037 6.85547L8.23501 6.87012L8.39591 6.92871L8.48367 6.9873L8.60069 7.08984L8.68845 7.22168L8.73233 7.35352L8.74696 7.42676V7.55859L8.70307 7.73438L8.61531 7.88086L8.54218 7.96875L8.39591 8.07129L8.16188 8.12988H6.78694L6.61141 8.08594L6.47977 7.99805L6.39201 7.9248L6.28962 7.76367L6.24574 7.66113L6.23111 7.58789V7.41211L6.28962 7.22168L6.37738 7.08984L6.47977 6.9873L6.61141 6.91406L6.72843 6.87012L7.24037 6.85547Z" fill="white"/>
<path d="M29.254 21.8701H29.5027L29.6636 21.9287L29.8245 22.0459L29.9561 22.2363L30 22.3242V23.9648H29.9707L29.8976 24.1113L29.8099 24.2139L29.6636 24.3164L29.4734 24.375H29.2687L29.1224 24.3311L28.9761 24.2432L28.8737 24.1406L28.8006 24.0234L28.7421 23.833V22.4121L28.8006 22.2217L28.8884 22.0898L28.9907 21.9873L29.1078 21.9141L29.254 21.8701Z" fill="white"/>
<path d="M29.254 18.1201H29.5027L29.6636 18.1787L29.8245 18.2959L29.9561 18.4863L30 18.5742V20.2148H29.9707L29.8976 20.3613L29.8245 20.4492L29.6636 20.5664L29.4734 20.625H29.2687L29.1224 20.5811L28.9761 20.4932L28.8737 20.3906L28.786 20.2295L28.7421 20.083V18.6621L28.8006 18.4717L28.8884 18.3398L28.9907 18.2373L29.1078 18.1641L29.254 18.1201Z" fill="white"/>
<path d="M29.254 14.3701H29.5027L29.6636 14.4287L29.8245 14.5459L29.9561 14.7363L30 14.8242V16.4648H29.9707L29.8976 16.6113L29.8245 16.6992L29.6636 16.8164L29.4734 16.875H29.2687L29.1224 16.8311L28.9761 16.7432L28.8737 16.6406L28.786 16.4795L28.7421 16.333V14.9121L28.8006 14.7217L28.8884 14.5898L28.9907 14.4873L29.1078 14.4141L29.254 14.3701Z" fill="white"/>
<path d="M29.254 10.6201H29.5027L29.6636 10.6787L29.8245 10.7959L29.9561 10.9863L30 11.0742V12.7148H29.9707L29.8976 12.8613L29.8245 12.9492L29.6636 13.0664L29.4734 13.125H29.2687L29.1224 13.0811L28.9761 12.9932L28.8737 12.8906L28.786 12.7295L28.7421 12.583V11.1621L28.8006 10.9717L28.8884 10.8398L28.9907 10.7373L29.1078 10.6641L29.254 10.6201Z" fill="white"/>
<path d="M29.254 6.87012H29.5027L29.6636 6.92871L29.8245 7.0459L29.9561 7.23633L30 7.32422V8.96484H29.9707L29.8976 9.11133L29.8245 9.19922L29.6636 9.31641L29.4734 9.375H29.2687L29.1224 9.33105L28.9761 9.24316L28.8737 9.14062L28.786 8.97949L28.7421 8.83301V7.41211L28.8006 7.22168L28.8884 7.08984L28.9907 6.9873L29.1078 6.91406L29.254 6.87012Z" fill="white"/>
<path d="M29.254 3.12012H29.5027L29.6636 3.17871L29.8245 3.2959L29.9561 3.48633L30 3.57422V5.21484H29.9707L29.8976 5.36133L29.8245 5.44922L29.6636 5.56641L29.4734 5.625H29.2687L29.1224 5.58105L28.9761 5.49316L28.8737 5.39062L28.786 5.22949L28.7421 5.08301V3.66211L28.8006 3.47168L28.8884 3.33984L28.9907 3.2373L29.1078 3.16406L29.254 3.12012Z" fill="white"/>
<path d="M6.05558 0H7.67918V0.0292969L7.75231 0.0439453L7.88396 0.131836L7.95709 0.19043L8.05948 0.336914L8.11799 0.498047V0.732422L8.05948 0.908203L7.94246 1.06934L7.81082 1.17188L7.66455 1.23047L7.50365 1.25977H6.20185L6.05558 1.23047L5.92394 1.17188L5.80692 1.08398L5.70453 0.966797L5.6314 0.805664L5.60214 0.615234L5.6314 0.439453L5.6899 0.307617L5.77767 0.19043L5.90931 0.0732422L6.05558 0Z" fill="white"/>
<path d="M24.7782 0H26.4018V0.0292969L26.4749 0.0439453L26.6065 0.131836L26.6797 0.19043L26.7821 0.336914L26.8406 0.512695V0.732422L26.7821 0.908203L26.665 1.06934L26.5334 1.17188L26.3871 1.23047L26.2116 1.25977H24.9391L24.7782 1.23047L24.6465 1.17188L24.5295 1.08398L24.4271 0.966797L24.354 0.805664L24.3247 0.615234L24.354 0.439453L24.4125 0.307617L24.5002 0.19043L24.6173 0.0878906L24.7782 0Z" fill="white"/>
<path d="M9.8001 0H11.4237V0.0292969L11.4968 0.0439453L11.6285 0.131836L11.7016 0.19043L11.7894 0.322266L11.8479 0.454102L11.8625 0.512695V0.732422L11.804 0.908203L11.687 1.06934L11.5553 1.17188L11.4091 1.23047L11.2335 1.25977H9.961L9.8001 1.23047L9.66846 1.17188L9.55144 1.08398L9.44905 0.966797L9.37592 0.805664L9.34666 0.615234L9.37592 0.439453L9.43443 0.307617L9.52219 0.19043L9.65383 0.0732422L9.8001 0Z" fill="white"/>
<path d="M21.0336 0H22.6572V0.0292969L22.7304 0.0439453L22.862 0.131836L22.9351 0.19043L23.0229 0.322266L23.0814 0.454102L23.096 0.512695V0.732422L23.0375 0.908203L22.9205 1.06934L22.7889 1.17188L22.6426 1.23047L22.4671 1.25977H21.1945L21.0336 1.23047L20.902 1.17188L20.785 1.08398L20.6826 0.966797L20.6095 0.805664L20.5802 0.615234L20.6095 0.439453L20.668 0.307617L20.7557 0.19043L20.8727 0.0878906L21.0336 0Z" fill="white"/>
<path d="M17.2891 0H18.9127V0.0292969L18.9859 0.0439453L19.1175 0.131836L19.1906 0.19043L19.2784 0.322266L19.3369 0.454102L19.3515 0.512695V0.732422L19.293 0.908203L19.176 1.06934L19.0444 1.17188L18.8981 1.23047L18.7226 1.25977H17.45L17.2891 1.23047L17.1575 1.17188L17.0405 1.08398L16.9381 0.966797L16.8649 0.805664L16.8357 0.615234L16.8649 0.439453L16.9235 0.307617L17.0112 0.19043L17.1282 0.0878906L17.2891 0Z" fill="white"/>
<path d="M13.5446 0H15.1682V0.0292969L15.2413 0.0439453L15.373 0.131836L15.4461 0.19043L15.5339 0.322266L15.5924 0.454102L15.607 0.512695V0.732422L15.5485 0.908203L15.4315 1.06934L15.2999 1.17188L15.1536 1.23047L14.9781 1.25977H13.7055L13.5446 1.23047L13.413 1.17188L13.2959 1.08398L13.1936 0.966797L13.1204 0.805664L13.0912 0.615234L13.1204 0.439453L13.1789 0.307617L13.2667 0.19043L13.3837 0.0878906L13.5446 0Z" fill="white"/>
<path d="M4.28572 24.9902H5.68991L5.82156 25.0195L5.96783 25.0928L6.1141 25.2246L6.20186 25.3711L6.24574 25.5176V25.7227L6.20186 25.8691L6.12872 26.001L5.99708 26.1328L5.82156 26.2207L5.67529 26.25H4.27109L4.08094 26.1914L3.92005 26.0742L3.80303 25.9131L3.74452 25.7666V25.4883L3.81766 25.2979L3.93467 25.1514L4.06632 25.0635L4.19796 25.0049L4.28572 24.9902Z" fill="white"/>
<path d="M4.28572 17.4902H5.68991L5.82156 17.5195L5.96783 17.5928L6.1141 17.7246L6.20186 17.8711L6.24574 18.0176V18.2227L6.20186 18.3691L6.12872 18.501L5.99708 18.6328L5.82156 18.7207L5.67529 18.75H4.27109L4.08094 18.6914L3.92005 18.5742L3.80303 18.4131L3.74452 18.2666V17.9883L3.81766 17.7979L3.93467 17.6514L4.06632 17.5635L4.19796 17.5049L4.28572 17.4902Z" fill="white"/>
<path d="M21.9405 6.85547H22.2184L22.5841 6.87012L22.745 6.92871L22.8766 7.0166L23.0083 7.16309L23.0814 7.32422L23.0961 7.39746V8.21777L23.0522 8.36426L22.9644 8.51074L22.9059 8.58398H22.8766V8.61328L22.7304 8.70117L22.4963 8.75977L22.3208 8.74512L22.1453 8.67188L22.0137 8.56934L21.8966 8.4082L21.8381 8.24707L21.8235 8.14453L21.6334 8.10059L21.4871 8.02734L21.3701 7.9248L21.2677 7.76367L21.2238 7.66113L21.2092 7.58789V7.41211L21.2677 7.22168L21.3701 7.0752L21.5017 6.95801L21.6187 6.89941L21.7211 6.87012L21.9405 6.85547Z" fill="white"/>
<path d="M28.5227 0H29.5319V0.0292969L29.6197 0.0585938L29.7806 0.175781L29.8976 0.336914L29.9269 0.424805L29.9561 0.439453V1.46484H29.9269L29.8537 1.61133L29.766 1.71387L29.6197 1.81641L29.4295 1.875H29.2248L29.0785 1.83105L28.9322 1.74316L28.8298 1.64062L28.7421 1.49414L28.6982 1.33301V1.24512L28.6543 1.25977L28.4642 1.21582L28.3033 1.11328L28.1716 0.966797L28.0985 0.805664L28.0692 0.65918L28.0839 0.483398L28.1424 0.322266L28.2448 0.19043L28.3764 0.0732422L28.5227 0Z" fill="white"/>
<path d="M15.5339 24.9902H15.6802L15.8703 25.0488L16.0312 25.1514L16.1482 25.2979L16.2067 25.4297L16.236 25.5615V25.6787L16.1921 25.8545L16.1043 26.001L16.0019 26.1182L15.8849 26.1914L15.7679 26.2354L15.6802 26.25H15.49L15.3437 26.2061L15.1828 26.1035L15.0804 25.9863L14.9927 25.8105L14.9781 25.752V25.5029L15.0219 25.3711L15.0804 25.2539L15.1828 25.1367L15.3291 25.0488L15.4315 25.0049L15.5339 24.9902Z" fill="white"/>
<path d="M15.5339 17.4902H15.6802L15.8703 17.5488L16.0312 17.6514L16.1482 17.7979L16.2067 17.9297L16.236 18.0615V18.1787L16.1921 18.3545L16.1043 18.501L16.0019 18.6182L15.8849 18.6914L15.7679 18.7354L15.6802 18.75H15.49L15.3437 18.7061L15.1828 18.6035L15.0804 18.4863L14.9927 18.3105L14.9781 18.252V18.0029L15.0219 17.8711L15.0804 17.7539L15.1828 17.6367L15.3291 17.5488L15.4315 17.5049L15.5339 17.4902Z" fill="white"/>
</svg>
