<svg width="30" height="30" viewBox="0 0 30 30" fill="none" xmlns="http://www.w3.org/2000/svg">
<path d="M29.9911 5.12953C29.9911 4.87047 29.7326 4.66321 29.4742 4.66321C20.1693 4.66321 18.1016 0.362694 18.0499 0.310881C17.9982 0.103627 17.7914 0 17.5847 0H12.4153C12.2086 0 12.0535 0.103627 11.9501 0.310881C11.8984 0.362694 9.83065 4.66321 0.525827 4.66321C0.26736 4.66321 0.00889218 4.87047 0.00889218 5.12953C0.00889218 5.33679 -0.869896 25.8031 14.8449 30C14.8966 30 14.9483 30 15 30C15.0517 30 15.1034 30 15.1551 30C30.8699 25.8549 29.9911 5.33679 29.9911 5.12953ZM15 29.0155C1.5597 25.285 0.991068 8.75648 1.04276 5.69948C9.31372 5.54404 12.0535 2.12435 12.7255 1.03627H17.2745C17.9465 2.12435 20.6863 5.54404 28.9572 5.69948C29.0089 8.75648 28.4403 25.285 15 29.0155Z" fill="white"/>
<path d="M15.4135 2.27979C15.3102 2.12435 15.1551 2.07254 15 2.07254C14.8449 2.07254 14.6898 2.12435 14.5864 2.27979C14.5864 2.27979 10.8645 6.73575 3.1105 6.73575C2.85203 6.73575 2.59356 6.94301 2.59356 7.20207C2.59356 7.35751 1.86985 23.9378 14.8449 27.4093C14.8966 27.4093 14.9483 27.4093 15 27.4093C15.0517 27.4093 15.1034 27.4093 15.1551 27.4093C28.1301 23.9896 27.4064 7.40933 27.4064 7.20207C27.4064 6.94301 27.148 6.73575 26.8895 6.73575C19.1872 6.73575 15.4135 2.27979 15.4135 2.27979ZM15 26.4249C4.14437 23.4197 3.62743 10.4663 3.62743 7.77202C10.1408 7.61658 13.8627 4.50777 15 3.36788C16.1889 4.55959 19.8592 7.61658 26.3726 7.77202C26.3726 10.4663 25.8556 23.4197 15 26.4249Z" fill="white"/>
<path d="M15 15.544C13.5526 15.544 12.4153 16.6839 12.4153 18.1347C12.4153 19.5855 13.5526 20.7254 15 20.7254C16.4474 20.7254 17.5847 19.5855 17.5847 18.1347C17.5847 16.6839 16.4474 15.544 15 15.544ZM15 19.6891C14.1212 19.6891 13.4492 19.0155 13.4492 18.1347C13.4492 17.2539 14.1212 16.5803 15 16.5803C15.8788 16.5803 16.5508 17.2539 16.5508 18.1347C16.5508 19.0155 15.8788 19.6891 15 19.6891Z" fill="white"/>
<path d="M15 13.4715C13.6043 13.4715 12.3119 14.1451 11.5365 15.3368C11.3814 15.5958 11.4331 15.9067 11.6916 16.0622C11.9501 16.2176 12.2602 16.1658 12.4153 15.9067C12.9839 15.0259 13.9661 14.5078 15 14.5078C16.0339 14.5078 17.016 15.0259 17.5847 15.9067C17.6881 16.0622 17.8431 16.114 17.9982 16.114C18.1016 16.114 18.205 16.0622 18.3084 16.0104C18.5668 15.8549 18.6185 15.544 18.4635 15.285C17.6881 14.1451 16.3957 13.4715 15 13.4715Z" fill="white"/>
<path d="M15 11.399C13.0357 11.399 11.2781 12.2798 10.0891 13.8342C9.93405 14.0414 9.93405 14.4041 10.1925 14.5596C10.3993 14.715 10.7611 14.715 10.9162 14.456C11.8984 13.1606 13.3975 12.4352 15 12.4352C16.6025 12.4352 18.1016 13.1606 19.0838 14.456C19.1872 14.6114 19.3423 14.6632 19.4973 14.6632C19.6007 14.6632 19.7041 14.6114 19.8075 14.5596C20.0143 14.4041 20.066 14.0414 19.9109 13.8342C18.7219 12.2798 16.9644 11.399 15 11.399Z" fill="white"/>
<path d="M8.6417 12.3316C8.43493 12.5389 8.48662 12.9015 8.6934 13.057C8.90017 13.2642 9.26203 13.2124 9.41711 13.0052C10.8128 11.3471 12.8289 10.3627 15 10.3627C17.1711 10.3627 19.1872 11.3471 20.5829 13.0052C20.6863 13.1088 20.8414 13.2124 20.9964 13.2124C21.0998 13.2124 21.2549 13.1606 21.3066 13.1088C21.5134 12.9015 21.5651 12.5907 21.3583 12.3834C19.8075 10.4145 17.4813 9.32642 15 9.32642C12.5187 9.32642 10.1925 10.4145 8.6417 12.3316Z" fill="white"/>
</svg>
